/* XPM */
static char *ccicon[] = {
/* columns rows colors chars-per-pixel */
"32 32 21 1 ",
"  c None",
". c #1C2027",
"X c #483910",
"o c #785830",
"O c #354B74",
"+ c #484848",
"@ c #585858",
"# c #7A7A78",
"$ c #801C09",
"% c #98583B",
"& c #AB5D64",
"* c #A88E51",
"= c #F98363",
"- c #1B57B3",
"; c #3D7BCB",
": c #5595DB",
"> c #7DBFF7",
", c #8F918D",
"< c #CBA18C",
"1 c #FBC0B0",
"2 c #D8F8F0",
/* pixels */
"                                ",
"                                ",
"          ::::::::::::          ",
"          ::::::::::::          ",
"      ::>>;;OOOOOOOO--::;;      ",
"      ::>>;;OOOOOOOO--::;;      ",
"    ::2222OO        OOOO;;;;    ",
"    ::2222OO        OOOO;;;;    ",
"    >>22                OO;;    ",
"    >>22                OO;;    ",
"  ::;;OO                OO--;;  ",
"  ::;;OO                OO--;;  ",
"  ::OO      &&====&&      OO;;  ",
"  ::OO      &&====&&      OO;;  ",
"  ::OO    &&==11&&<<$$    OO;;  ",
"  ::OO    &&==11&&<<$$    OO;;  ",
"  ::OO    &&11====<<$$    OO;;  ",
"  ::OO    &&11====<<$$    OO;;  ",
"  ::OO    $$&&%%%%$$$$    OO;;  ",
"  ::OO    $$&&%%%%$$$$    OO;;  ",
"  ::;;OO    XXooooXX    OO--;;  ",
"  ::;;OO    XXooooXX    OO--;;  ",
"    ::OO      ****      OO;;    ",
"    ::OO      ****      OO;;    ",
"    ;;;;@@@@  @@@@  @@@@;;;;    ",
"    ;;;;@@@@  @@@@  @@@@;;;;    ",
"      @@##@@,,,,,,,,@@##@@      ",
"      @@##@@,,,,,,,,@@##@@      ",
"      ..++XX,,,,,,,,XX++..      ",
"      ..++XX,,,,,,,,XX++..      ",
"      ..XX@@++@@@@++@@XX..      ",
"      ..XX@@++@@@@++@@XX..      "
};
